<?xml version="1.0" encoding="UTF-8" standalone="no"?>
<svg width="70px" height="77px" viewBox="0 0 70 77" version="1.1" xmlns="http://www.w3.org/2000/svg" xmlns:xlink="http://www.w3.org/1999/xlink">
    <!-- Generator: Sketch 3.8.3 (29802) - http://www.bohemiancoding.com/sketch -->
    <title>user - FontAwesome</title>
    <desc>Created with Sketch.</desc>
    <defs></defs>
    <g id="Page-1" stroke="none" stroke-width="1" fill="none" fill-rule="evenodd">
        <g id="user---FontAwesome---group" transform="translate(0.100000, 0.000000)" fill="#000000">
            <path d="M69.3429396,63.5098962 C69.3429396,52.4116687 66.7402579,35.3714698 52.3518479,35.3714698 C50.8295246,35.3714698 44.3964813,42.1973708 34.7714698,42.1973708 C25.1464583,42.1973708 18.7134149,35.3714698 17.1910917,35.3714698 C2.80268167,35.3714698 0.2,52.4116687 0.2,63.5098962 C0.2,71.4652628 5.50357775,76.2286613 13.3116228,76.2286613 L56.2313168,76.2286613 C64.0393618,76.2286613 69.3429396,71.4652628 69.3429396,63.5098962 L69.3429396,63.5098962 Z M53.6286351,19.6571653 C53.6286351,9.24643864 45.1821965,0.8 34.7714698,0.8 C24.3607431,0.8 15.9143044,9.24643864 15.9143044,19.6571653 C15.9143044,30.067892 24.3607431,38.5143307 34.7714698,38.5143307 C45.1821965,38.5143307 53.6286351,30.067892 53.6286351,19.6571653 L53.6286351,19.6571653 Z" id="user---FontAwesome"></path>
        </g>
    </g>
</svg>